<svg width="4542" height="1756" viewBox="0 0 4542 1756" fill="none" xmlns="http://www.w3.org/2000/svg">
<path fill-rule="evenodd" clip-rule="evenodd" d="M0 1756H4542V135.647L4512.97 100.608L4463.7 19.4385L4413.61 101.944L4350.22 178.47L4360 190.271L4330.83 238.321H4366.49L4360.65 247.942L4303.39 317.081L4261.54 257.803L4182.79 369.377L4170 342.244L4179.41 330.698L4144.16 287.44L4135.44 268.927H4161.19L4138.77 221.372L4146.73 211.758L4117.72 176.714L4066.37 67.7918L4015.02 176.714L3986.02 211.758L3993.97 221.372L3971.56 268.927H3997L3987.86 288.325L3953.34 330.698L3962.55 342.008L3950.78 366.975L3919.46 326.293H3954.56L3908.02 265.853L3915.91 254.523L3818.62 114.687L3739.78 227.999L3728.38 205.481L3737.67 191.834L3674.36 98.8547L3671.42 93.0619L3667.62 100.558L3605.47 191.834L3614.6 205.231L3574.22 284.922H3600.31L3564.65 355.317L3546.07 318.028L3559.43 301.904L3506.75 238.321H3535.98L3505.54 177.213L3515.76 164.863L3474.63 115.184L3426.94 19.4385L3355.71 162.418L3312.27 93.0619L3261.21 174.592L3224.48 133.397L3122.15 248.206L3138.27 266.298L3104.17 315.681H3106.39L3104.92 317.455L3121.43 337.393L3097.46 372.115L3071.99 325.718L3091.84 302.026L3038.45 238.321H3056.64L3023.28 177.555L3032.13 164.863L2957.79 58.2632L2936.48 19.4385L2915.17 58.2594L2860.24 137.017L2758.24 0L2652.78 141.658L2664.55 157.465L2609.49 238.321H2634.55L2577.8 314.549L2562.06 295.841H2576.89L2539.93 240.947L2547.62 231.804L2478.21 149.293L2451.96 110.314L2425.72 149.286L2356.31 231.804L2364 240.947L2327.03 295.841H2341.87L2318.54 323.565L2247.94 238.321H2281.57L2252.53 190.477L2262.48 178.47L2197.97 100.608L2148.7 19.4385L2098.61 101.944L2035.22 178.47L2045 190.271L2015.83 238.321H2051.49L2045.65 247.942L1988.39 317.081L1946.54 257.803L1867.79 369.377L1855 342.244L1864.41 330.698L1829.16 287.44L1820.44 268.927H1846.19L1823.77 221.372L1831.73 211.758L1802.72 176.714L1751.37 67.7918L1700.03 176.714L1671.02 211.758L1678.97 221.372L1656.56 268.927H1682L1672.86 288.325L1638.34 330.698L1647.55 342.008L1635.78 366.975L1604.46 326.293H1639.56L1593.02 265.853L1600.91 254.523L1503.62 114.687L1424.78 227.999L1413.38 205.481L1422.67 191.834L1359.36 98.8547L1356.42 93.0619L1352.62 100.558L1290.47 191.834L1299.6 205.231L1259.22 284.922H1285.31L1249.65 355.317L1231.07 318.028L1244.43 301.904L1191.75 238.321H1220.98L1190.54 177.213L1200.76 164.863L1159.63 115.184L1111.94 19.4385L1040.71 162.418L997.269 93.0619L946.206 174.592L909.485 133.397L807.145 248.206L823.273 266.298L789.173 315.681H791.385L789.916 317.455L806.432 337.393L782.456 372.115L756.985 325.718L776.844 302.026L723.447 238.321H741.642L708.282 177.555L717.134 164.863L642.793 58.2632L621.479 19.4385L600.167 58.2594L545.242 137.017L443.239 0L337.78 141.658L349.547 157.465L294.488 238.321H319.548L262.8 314.549L247.06 295.841H261.893L224.928 240.947L232.618 231.804L163.211 149.293L136.963 110.314L110.721 149.286L41.3071 231.804L48.998 240.947L12.0342 295.841H26.8662L0 327.773V1756ZM4192.76 390.521L4192.13 389.196H4193.69L4192.76 390.521ZM1877.76 390.521L1877.13 389.196H1878.69L1877.76 390.521Z" fill="#334B53"/>
<path fill-rule="evenodd" clip-rule="evenodd" d="M0 1756H4542V806.289L4506.28 757.947L4480.04 713.581L4453.79 757.955L4384.38 851.886L4392.07 862.294L4355.11 924.786H4369.94L4354.2 946.083L4297.45 859.306H4322.51L4267.45 767.258L4279.22 749.264L4173.76 588L4071.76 743.981L4016.83 654.323L3995.52 610.129L3974.21 654.327L3899.87 775.68L3908.72 790.129L3875.36 859.306H3893.55L3840.16 931.827L3860.01 958.798L3834.54 1011.62L3810.57 972.088L3827.08 949.392L3825.61 947.372H3827.83L3793.73 891.154L3809.85 870.558L3707.52 739.859L3670.79 786.755L3619.73 693.942L3576.29 772.897L3505.06 610.129L3457.37 719.126L3416.24 775.68L3426.46 789.739L3396.02 859.306H3425.25L3372.57 931.688L3385.93 950.044L3367.35 992.493L3331.69 912.355H3357.78L3317.4 821.635L3326.53 806.384L3264.38 702.476L3260.58 693.942L3257.64 700.536L3194.33 806.384L3203.62 821.92L3192.22 847.554L3113.38 718.56L3016.09 877.749L3023.98 890.648L2977.44 959.452H3012.54L2981.22 1005.77L2969.45 977.343L2978.66 964.467L2944.14 916.229L2935 894.147H2960.44L2938.03 840.01L2945.98 829.066L2916.98 789.172L2865.63 665.174L2814.28 789.172L2785.27 829.066L2793.23 840.01L2770.81 894.147H2796.56L2787.84 915.222L2752.59 964.467L2762 977.612L2749.21 1008.5L2670.46 881.484L2628.61 948.965L2571.35 870.257L2565.51 859.306H2601.17L2572 804.605L2581.78 791.17L2518.39 704.053L2468.3 610.129L2419.03 702.532L2354.52 791.17L2364.47 804.839L2335.43 859.306H2369.06L2298.46 956.348L2275.13 924.786H2289.97L2253 862.295L2260.69 851.886L2191.28 757.947L2165.04 713.581L2138.79 757.955L2069.38 851.886L2077.07 862.294L2040.11 924.786H2054.94L2039.2 946.083L1982.45 859.306H2007.51L1952.45 767.258L1964.22 749.264L1858.76 588L1756.76 743.981L1701.83 654.323L1680.52 610.129L1659.21 654.327L1584.87 775.68L1593.72 790.129L1560.36 859.306H1578.55L1525.16 931.827L1545.01 958.798L1519.54 1011.62L1495.57 972.088L1512.08 949.392L1510.61 947.372H1512.83L1478.73 891.154L1494.85 870.558L1392.52 739.859L1355.79 786.755L1304.73 693.942L1261.29 772.897L1190.06 610.129L1142.37 719.126L1101.24 775.68L1111.46 789.739L1081.02 859.306H1110.25L1057.57 931.688L1070.93 950.044L1052.35 992.493L1016.69 912.355H1042.78L1002.4 821.635L1011.53 806.384L949.376 702.476L945.578 693.942L942.644 700.536L879.333 806.384L888.625 821.92L877.217 847.554L798.382 718.56L701.092 877.749L708.975 890.648L662.436 959.452H697.543L666.217 1005.77L654.447 977.343L663.662 964.467L629.14 916.229L619.996 894.147H645.444L623.027 840.01L630.985 829.066L601.975 789.172L550.628 665.174L499.281 789.172L470.271 829.066L478.23 840.01L455.812 894.147H481.564L472.837 915.222L437.594 964.467L447.001 977.612L434.211 1008.5L355.455 881.484L313.613 948.965L256.352 870.257L250.512 859.306H286.174L257.005 804.605L266.781 791.17L203.386 704.053L153.301 610.129L104.027 702.532L39.5249 791.17L49.4719 804.839L20.428 859.306H54.0596L0 933.612V1756ZM424.244 1032.57L424.868 1031.06H423.308L424.244 1032.57ZM2739.24 1032.57L2739.87 1031.06H2738.31L2739.24 1032.57Z" fill="#627881"/>
</svg>
